<?xml version="1.0" encoding="UTF-8"?>
<svg xmlns="http://www.w3.org/2000/svg" xmlns:xlink="http://www.w3.org/1999/xlink" width="300px" height="300px" viewBox="0 0 300 300" version="1.1">
<g id="surface1">
<path style=" stroke:none;fill-rule:nonzero;fill:rgb(0%,0%,0%);fill-opacity:1;" d="M 224.648438 96 C 223.449219 96.375 222.324219 97.300781 221.398438 98.726562 C 220.898438 99.449219 220.5 100.226562 220.5 100.398438 C 220.5 100.824219 220.023438 100.851562 219.898438 100.425781 C 219 97.226562 218.898438 97.148438 216.476562 97.523438 C 215.449219 97.699219 214.550781 97.898438 214.449219 97.976562 C 214.300781 98.125 217.800781 120.625 218.023438 120.851562 C 218.175781 121 223.050781 120.226562 223.300781 120.023438 C 223.375 119.949219 222.976562 116.773438 222.351562 113 C 221.300781 106.324219 221.273438 106.101562 221.648438 104.925781 C 222.425781 102.601562 223.898438 101.5 226.25 101.5 C 228.175781 101.5 228.449219 101.074219 228.300781 98.476562 C 228.226562 96.949219 228.101562 96.300781 227.800781 96.050781 C 227.351562 95.699219 225.75 95.675781 224.648438 96 Z M 224.648438 96 "/>
<path style=" stroke:none;fill-rule:nonzero;fill:rgb(0%,0%,0%);fill-opacity:1;" d="M 177.699219 96.476562 C 176.148438 96.800781 176.101562 96.925781 175.898438 100.550781 C 175.824219 102.351562 175.699219 103.875 175.648438 103.925781 C 175.523438 104.050781 166.425781 105.5 166.351562 105.425781 C 166.300781 105.398438 166.050781 103.851562 165.75 102 C 165.449219 100.148438 165.175781 98.601562 165.125 98.550781 C 164.976562 98.398438 161.875 99.050781 161.574219 99.300781 C 161.375 99.476562 161.25 100.226562 161.25 101.351562 C 161.25 102.324219 161.175781 103.875 161.101562 104.800781 L 160.925781 106.476562 L 159.199219 107.023438 C 157.648438 107.5 157.476562 107.625 157.601562 108.101562 C 157.675781 108.375 157.75 108.925781 157.75 109.300781 C 157.75 109.699219 157.949219 110.199219 158.226562 110.476562 C 158.625 110.875 158.875 110.898438 160.023438 110.726562 C 160.75 110.601562 161.375 110.550781 161.398438 110.574219 C 161.449219 110.601562 161.976562 113.800781 162.601562 117.648438 C 163.476562 123.25 163.851562 124.949219 164.351562 125.976562 C 165.875 128.976562 169.398438 129.699219 173.5 127.851562 C 174.300781 127.5 175.25 126.875 175.648438 126.476562 L 176.324219 125.773438 L 175.148438 124.375 C 174.5 123.625 173.851562 123 173.699219 123 C 173.574219 123 173.148438 123.199219 172.800781 123.476562 C 171.375 124.476562 169.898438 124.351562 169.273438 123.175781 C 168.898438 122.425781 166.949219 109.949219 167.175781 109.726562 C 167.425781 109.5 175.976562 108.148438 176.125 108.300781 C 176.199219 108.351562 176.75 111.574219 177.375 115.449219 C 178.101562 120.074219 178.648438 122.824219 178.976562 123.476562 C 179.601562 124.675781 180.925781 125.851562 182.148438 126.25 C 183.398438 126.675781 186.300781 126.425781 187.75 125.800781 C 189.023438 125.25 191 123.851562 191 123.523438 C 191 123.125 188.726562 120.75 188.351562 120.75 C 188.148438 120.75 187.675781 120.976562 187.273438 121.273438 C 186.324219 121.976562 184.851562 121.851562 184.226562 121 C 183.898438 120.550781 183.476562 118.449219 182.75 113.898438 C 182.199219 110.351562 181.773438 107.398438 181.824219 107.351562 C 181.875 107.300781 183.125 107.074219 184.648438 106.824219 C 186.148438 106.601562 187.449219 106.351562 187.574219 106.25 C 187.851562 106 187.226562 102.25 186.898438 102.25 C 186.75 102.25 185.625 102.425781 184.375 102.625 C 183.148438 102.824219 181.875 103 181.601562 103 C 181.023438 103 181.074219 103.226562 180.25 98.050781 C 179.925781 96.050781 179.925781 96.050781 177.699219 96.476562 Z M 177.699219 96.476562 "/>
<path style=" stroke:none;fill-rule:nonzero;fill:rgb(0%,0%,0%);fill-opacity:1;" d="M 198.824219 100.125 C 195.300781 101.101562 192.675781 103.523438 191.449219 106.949219 C 191.050781 108.023438 190.949219 108.976562 190.949219 110.875 C 190.949219 117.023438 194.175781 121.875 199.175781 123.226562 C 199.773438 123.398438 201.175781 123.523438 202.300781 123.523438 C 206 123.523438 209.101562 122.324219 211.625 119.949219 L 213.125 118.523438 L 212.023438 117.425781 C 211.425781 116.800781 210.726562 116.226562 210.476562 116.175781 C 210.199219 116.101562 209.601562 116.324219 209.074219 116.699219 C 205.648438 119.050781 205.148438 119.25 202.925781 119.25 C 200.925781 119.25 199.476562 118.550781 198.375 117.050781 C 197.601562 115.949219 196.523438 113.398438 196.773438 113.148438 C 196.824219 113.101562 200.101562 112.550781 204.050781 111.925781 C 208.023438 111.300781 211.375 110.699219 211.523438 110.601562 C 211.726562 110.476562 211.773438 109.875 211.675781 108.699219 C 211.375 105.25 209.023438 101.773438 206.074219 100.449219 C 204.523438 99.75 200.75 99.574219 198.824219 100.125 Z M 204.199219 104.449219 C 205.148438 104.875 206.148438 106.25 206.398438 107.398438 L 206.550781 108.148438 L 202.074219 108.851562 C 199.625 109.226562 197.300781 109.601562 196.898438 109.675781 L 196.175781 109.824219 L 196.324219 108.675781 C 196.523438 107.148438 197.300781 105.675781 198.175781 105.074219 C 200.074219 103.75 202.25 103.550781 204.199219 104.449219 Z M 204.199219 104.449219 "/>
<path style=" stroke:none;fill-rule:nonzero;fill:rgb(0%,0%,0%);fill-opacity:1;" d="M 82.300781 102.824219 C 81.800781 104.226562 81.925781 104.976562 82.851562 105.898438 C 83.324219 106.375 84.050781 106.824219 84.476562 106.898438 C 84.925781 107 85.398438 107.300781 85.550781 107.601562 C 85.949219 108.398438 86.800781 109 87.550781 109 C 88.273438 109 89.25 108 89.25 107.226562 C 89.25 106.925781 88.125 105.949219 86.101562 104.449219 C 84.375 103.175781 82.898438 102.101562 82.800781 102.050781 C 82.675781 102.023438 82.476562 102.375 82.300781 102.824219 Z M 84.273438 104.425781 C 85.25 105.125 85.398438 105.574219 84.726562 105.699219 C 84.25 105.800781 83 104.648438 83 104.125 C 83 103.601562 83.148438 103.648438 84.273438 104.425781 Z M 87.175781 106.648438 C 88 107.273438 88.074219 107.75 87.351562 107.75 C 86.898438 107.75 86 106.851562 86 106.375 C 86 105.851562 86.199219 105.898438 87.175781 106.648438 Z M 87.175781 106.648438 "/>
<path style=" stroke:none;fill-rule:nonzero;fill:rgb(0%,0%,0%);fill-opacity:1;" d="M 120 103.425781 C 118.25 103.523438 106.800781 105.324219 106.449219 105.523438 C 106.226562 105.675781 106.773438 109.550781 108.601562 121.175781 C 109.949219 129.675781 111.125 136.898438 111.199219 137.25 L 111.375 137.898438 L 118.074219 136.824219 C 125.449219 135.675781 127.25 135.199219 129.425781 133.773438 C 131.175781 132.648438 132.125 131.574219 132.976562 129.75 C 133.523438 128.574219 133.625 128.050781 133.625 126 C 133.601562 123.925781 133.523438 123.476562 132.949219 122.375 C 131.824219 120.199219 129.949219 118.949219 127.398438 118.601562 C 126.773438 118.5 126.25 118.324219 126.25 118.226562 C 126.25 118.101562 126.351562 118 126.476562 118 C 127 118 129.273438 115.625 129.851562 114.449219 C 131.351562 111.425781 130.101562 106.898438 127.226562 104.949219 C 125.523438 103.824219 122.773438 103.226562 120 103.425781 Z M 122.449219 108.75 C 123.273438 109.125 123.625 109.476562 124 110.300781 C 125.375 113.449219 124.601562 115.824219 121.773438 117.050781 C 120.800781 117.449219 114.550781 118.648438 114.375 118.449219 C 114.324219 118.398438 114 116.398438 113.625 114 C 113.25 111.601562 112.898438 109.550781 112.824219 109.449219 C 112.699219 109.226562 113.199219 109.101562 116 108.648438 C 119.125 108.125 121.175781 108.175781 122.449219 108.75 Z M 124.625 121.773438 C 126.648438 122.351562 127.925781 124.523438 127.699219 127.050781 C 127.550781 128.5 126.625 129.800781 125.226562 130.5 C 124.324219 130.976562 116.851562 132.425781 116.601562 132.199219 C 116.425781 132.023438 115.023438 122.898438 115.148438 122.75 C 115.351562 122.574219 121.425781 121.574219 122.625 121.523438 C 123.175781 121.523438 124.074219 121.625 124.625 121.773438 Z M 124.625 121.773438 "/>
<path style=" stroke:none;fill-rule:nonzero;fill:rgb(0%,0%,0%);fill-opacity:1;" d="M 145.449219 108.523438 C 142.523438 108.949219 139.324219 110.976562 137.824219 113.351562 C 136.699219 115.125 136.199219 116.925781 136.199219 119.375 C 136.199219 125.476562 139.398438 130.425781 144.226562 131.851562 C 146.976562 132.648438 151.273438 132.125 154.273438 130.625 C 155.675781 129.898438 158.25 127.625 158.25 127.101562 C 158.25 126.699219 155.925781 124.75 155.425781 124.75 C 155.226562 124.75 154.523438 125.175781 153.851562 125.726562 C 152.023438 127.175781 150.574219 127.800781 148.824219 127.949219 C 146.773438 128.101562 145.351562 127.574219 144.050781 126.148438 C 143.226562 125.25 142 122.773438 142 122 C 142 121.726562 141.726562 121.800781 149.898438 120.5 C 153.351562 119.949219 156.375 119.425781 156.625 119.351562 C 157 119.199219 157.050781 118.949219 156.925781 117.300781 C 156.773438 115.175781 155.875 113.074219 154.398438 111.351562 C 153.351562 110.125 151 108.824219 149.476562 108.625 C 147.273438 108.324219 146.851562 108.324219 145.449219 108.523438 Z M 148.824219 112.851562 C 150.125 113.324219 150.726562 113.898438 151.398438 115.375 C 151.949219 116.523438 151.949219 116.648438 151.550781 116.800781 C 151.324219 116.898438 149.148438 117.273438 146.75 117.625 C 144.351562 118 142.148438 118.351562 141.898438 118.425781 C 141.476562 118.550781 141.449219 118.449219 141.574219 117.398438 C 142.074219 113.800781 145.5 111.675781 148.824219 112.851562 Z M 148.824219 112.851562 "/>
<path style=" stroke:none;fill-rule:nonzero;fill:rgb(0%,0%,0%);fill-opacity:1;" d="M 77.398438 115.800781 C 77.101562 116.800781 77.101562 117.148438 77.324219 117.300781 C 77.875 117.648438 78.199219 117.5 78.351562 116.875 L 78.5 116.25 L 79.523438 116.773438 C 80.375 117.199219 80.523438 117.398438 80.449219 117.875 C 80.351562 118.300781 80.476562 118.523438 80.925781 118.726562 C 81.226562 118.875 81.5 118.898438 81.5 118.800781 C 81.5 118.699219 81.601562 118.476562 81.726562 118.300781 C 81.875 118.050781 82.101562 118.074219 82.824219 118.5 C 83.625 118.976562 83.699219 119.125 83.574219 119.851562 C 83.476562 120.476562 83.550781 120.726562 83.875 120.851562 C 84.425781 121.050781 84.425781 121.074219 84.851562 119.675781 L 85.199219 118.5 L 83.351562 117.5 C 82.324219 116.949219 80.675781 116.050781 79.648438 115.5 L 77.800781 114.5 Z M 77.398438 115.800781 "/>
<path style=" stroke:none;fill-rule:nonzero;fill:rgb(0%,0%,0%);fill-opacity:1;" d="M 74.976562 127.75 C 74.949219 127.875 74.925781 128.125 74.898438 128.273438 C 74.875 128.425781 76.351562 129.074219 78.125 129.726562 C 81.074219 130.800781 81.375 130.976562 81.449219 131.550781 C 81.5 131.949219 81.726562 132.25 82.023438 132.324219 C 82.625 132.476562 82.648438 132.449219 82.851562 130.601562 C 83 129.300781 82.949219 129.023438 82.625 128.898438 C 81.949219 128.648438 81.75 128.726562 81.75 129.25 C 81.75 129.523438 81.699219 129.75 81.648438 129.75 C 81.601562 129.75 80.125 129.25 78.398438 128.625 C 74.824219 127.375 75.023438 127.398438 74.976562 127.75 Z M 74.976562 127.75 "/>
<path style=" stroke:none;fill-rule:nonzero;fill:rgb(0%,0%,0%);fill-opacity:1;" d="M 231.875 137.125 C 229.625 137.5 229.351562 137.648438 229.023438 138.449219 C 228.898438 138.824219 228.148438 142.148438 227.375 145.875 C 226.601562 149.574219 225.898438 152.824219 225.824219 153.074219 C 225.75 153.398438 225.375 152.949219 224.5 151.449219 C 221.523438 146.25 217.726562 140.148438 217.273438 139.851562 C 216.550781 139.351562 211.398438 140.148438 211.625 140.726562 C 211.726562 140.949219 212.976562 142.976562 214.398438 145.25 C 215.851562 147.523438 218.601562 151.824219 220.5 154.800781 L 223.949219 160.199219 L 222.574219 165 C 221.824219 167.648438 221.273438 169.875 221.351562 169.925781 C 221.601562 170.175781 225.824219 169.398438 226.273438 169.023438 C 226.625 168.726562 227.726562 164.625 230.699219 152.675781 C 234.398438 137.800781 234.625 136.75 234.148438 136.773438 C 233.851562 136.800781 232.851562 136.949219 231.875 137.125 Z M 231.875 137.125 "/>
<path style=" stroke:none;fill-rule:nonzero;fill:rgb(0%,0%,0%);fill-opacity:1;" d="M 165.5 138.023438 C 162.125 138.601562 159.351562 139.074219 159.300781 139.125 C 159.226562 139.199219 164.273438 171.324219 164.375 171.449219 C 164.5 171.601562 178.449219 169.25 179.398438 168.925781 C 182.550781 167.800781 184.898438 165.898438 186 163.625 C 186.800781 161.976562 187 158.625 186.398438 156.824219 C 185.601562 154.425781 183.898438 153.023438 180.800781 152.25 L 179.226562 151.875 L 180.351562 151.074219 C 181.800781 150.050781 182.925781 148.5 183.398438 146.800781 C 184.125 144.300781 183.101562 141.074219 180.976562 139.148438 C 179.300781 137.648438 177.976562 137.226562 174.5 137.101562 C 172.023438 137.023438 170.773438 137.148438 165.5 138.023438 Z M 175.773438 142.398438 C 177.175781 143.226562 178.023438 145.601562 177.648438 147.625 C 177.398438 148.898438 176.199219 150.148438 174.648438 150.726562 C 173 151.324219 167.800781 152.148438 167.523438 151.851562 C 167.300781 151.625 165.925781 143 166.074219 142.851562 C 166.125 142.800781 167.449219 142.523438 169.023438 142.273438 C 172.375 141.699219 174.625 141.75 175.773438 142.398438 Z M 178.898438 155.898438 C 180.351562 156.949219 180.625 157.625 180.625 159.824219 C 180.625 162.273438 180.148438 163.175781 178.300781 164.101562 C 177.25 164.625 171.675781 165.75 170.101562 165.75 C 169.648438 165.75 169.523438 165.324219 168.851562 161.023438 L 168.101562 156.273438 L 169.75 156.023438 C 170.648438 155.875 171.949219 155.648438 172.625 155.523438 C 173.324219 155.398438 174.851562 155.300781 176.050781 155.324219 C 177.800781 155.375 178.351562 155.476562 178.898438 155.898438 Z M 178.898438 155.898438 "/>
<path style=" stroke:none;fill-rule:nonzero;fill:rgb(0%,0%,0%);fill-opacity:1;" d="M 74 140.976562 C 74 141.550781 74.023438 141.550781 77.625 142.25 C 81.324219 142.976562 81.25 142.949219 81.25 143.648438 C 81.25 144.074219 81.375 144.25 81.75 144.25 C 82.199219 144.25 82.25 144.074219 82.25 142.5 C 82.25 140.800781 82.226562 140.75 81.625 140.75 C 81.175781 140.75 81 140.875 81 141.25 C 81 141.523438 80.949219 141.75 80.898438 141.75 C 80.851562 141.75 79.449219 141.476562 77.75 141.125 C 74.074219 140.375 74 140.375 74 140.976562 Z M 74 140.976562 "/>
<path style=" stroke:none;fill-rule:nonzero;fill:rgb(0%,0%,0%);fill-opacity:1;" d="M 205.074219 141.351562 C 204.074219 141.523438 203.199219 141.726562 203.125 141.800781 C 203.050781 141.851562 203.550781 145.425781 204.25 149.726562 C 204.925781 154.023438 205.5 157.851562 205.5 158.226562 C 205.5 158.75 205.199219 159.226562 204.398438 159.949219 C 203 161.25 201.800781 161.75 200.125 161.75 C 198.550781 161.75 197.601562 161.101562 196.925781 159.574219 C 196.675781 159.050781 195.949219 155.226562 195.300781 151.074219 C 194.625 146.925781 194.023438 143.449219 193.925781 143.351562 C 193.773438 143.199219 188.800781 143.851562 188.625 144.050781 C 188.425781 144.25 191.125 160.050781 191.523438 161.125 C 192.699219 164.199219 194.949219 165.976562 198 166.199219 C 200.851562 166.398438 203.375 165.398438 205.375 163.273438 C 205.925781 162.699219 206.425781 162.25 206.523438 162.25 C 206.625 162.25 206.851562 162.648438 207 163.148438 C 207.425781 164.398438 208.050781 164.625 210.226562 164.25 C 211.675781 164 212 163.875 212 163.5 C 212 163.050781 208.898438 143.125 208.601562 141.675781 C 208.449219 140.898438 208.074219 140.851562 205.074219 141.351562 Z M 205.074219 141.351562 "/>
<path style=" stroke:none;fill-rule:nonzero;fill:rgb(0%,0%,0%);fill-opacity:1;" d="M 75.125 153.449219 C 75.398438 155.050781 75.523438 155.25 76.101562 155.25 C 76.574219 155.25 76.648438 155.148438 76.550781 154.5 C 76.449219 153.75 76.449219 153.75 77.574219 153.75 C 78.550781 153.75 78.726562 153.824219 78.851562 154.375 C 78.976562 154.851562 79.175781 155 79.648438 155 C 80.175781 155 80.273438 154.898438 80.175781 154.5 C 80.050781 154.050781 80.175781 154 81.273438 154 C 82.476562 154 82.5 154.023438 82.5 154.75 C 82.5 155.398438 82.601562 155.5 83.148438 155.5 C 83.773438 155.5 83.800781 155.449219 83.648438 154.550781 C 83.574219 154.050781 83.5 153.5 83.5 153.324219 C 83.5 153 82.148438 152.824219 77.925781 152.648438 L 74.976562 152.523438 Z M 75.125 153.449219 "/>
<path style=" stroke:none;fill-rule:nonzero;fill:rgb(0%,0%,0%);fill-opacity:1;" d="M 81.425781 164.449219 C 77.875 164.800781 77.75 164.851562 77.898438 165.351562 C 78 165.648438 78.074219 165.898438 78.101562 165.925781 C 78.101562 165.925781 78.898438 165.875 79.824219 165.773438 C 80.773438 165.675781 81.574219 165.675781 81.648438 165.773438 C 81.75 165.949219 79.375 166.75 78.773438 166.75 C 78.449219 166.75 78.425781 167.226562 78.699219 167.675781 C 78.851562 167.925781 79.25 167.875 80.476562 167.5 C 81.648438 167.148438 82.476562 167.074219 83.726562 167.175781 C 85.851562 167.351562 86.5 167.050781 86.5 165.925781 C 86.5 164.550781 86.25 164 85.648438 164.023438 C 85.375 164.050781 83.476562 164.25 81.425781 164.449219 Z M 85.324219 165.425781 C 85.648438 165.75 84.925781 166.25 84.125 166.25 C 83.101562 166.25 82.425781 165.601562 83.300781 165.425781 C 84.25 165.25 85.148438 165.25 85.324219 165.425781 Z M 85.324219 165.425781 "/>
<path style=" stroke:none;fill-rule:nonzero;fill:rgb(0%,0%,0%);fill-opacity:1;" d="M 231 175.800781 C 230.726562 176.25 230.5 176.699219 230.5 176.800781 C 230.5 177 236.375 182.074219 236.726562 182.199219 C 236.851562 182.25 237.023438 182.074219 237.125 181.824219 C 237.25 181.476562 236.976562 181.101562 236.023438 180.25 C 235.324219 179.625 234.75 179.023438 234.75 178.925781 C 234.75 178.800781 235.375 179.050781 236.148438 179.5 C 236.925781 179.925781 237.699219 180.226562 237.898438 180.148438 C 238.625 179.875 238.199219 179.300781 236.75 178.523438 C 235.75 177.976562 235.023438 177.375 234.625 176.75 C 233.398438 174.800781 231.851562 174.398438 231 175.800781 Z M 233.375 176.875 C 233.976562 177.449219 234.226562 178.25 233.824219 178.25 C 233.5 178.226562 232 176.773438 232 176.5 C 232 176.050781 232.773438 176.25 233.375 176.875 Z M 233.375 176.875 "/>
<path style=" stroke:none;fill-rule:nonzero;fill:rgb(0%,0%,0%);fill-opacity:1;" d="M 91.699219 185.449219 C 89.800781 186.199219 88.25 186.976562 88.25 187.148438 C 88.25 187.773438 88.800781 187.800781 90.25 187.25 L 91.726562 186.699219 L 92.398438 187.226562 C 93.75 188.300781 96.523438 187.476562 96.699219 185.949219 C 96.800781 185.148438 96.101562 184 95.523438 184.023438 C 95.300781 184.023438 93.574219 184.675781 91.699219 185.449219 Z M 95.5 185.601562 C 95.5 186.125 94.851562 186.550781 93.976562 186.574219 C 92.800781 186.648438 92.851562 186.175781 94.050781 185.699219 C 95.398438 185.175781 95.5 185.175781 95.5 185.601562 Z M 95.5 185.601562 "/>
<path style=" stroke:none;fill-rule:nonzero;fill:rgb(0%,0%,0%);fill-opacity:1;" d="M 225.148438 185.449219 C 224.800781 185.976562 224.5 186.5 224.5 186.601562 C 224.5 186.800781 229.699219 192.75 229.875 192.75 C 229.925781 192.75 230.324219 192.300781 230.773438 191.726562 C 231.523438 190.773438 231.550781 190.699219 231.148438 190.300781 C 230.75 189.898438 230.699219 189.898438 230.273438 190.425781 L 229.824219 190.976562 L 229.023438 190.148438 C 228.300781 189.398438 228.25 189.25 228.523438 188.773438 C 228.824219 188.324219 228.800781 188.199219 228.425781 187.824219 C 228 187.398438 227.949219 187.398438 227.726562 187.824219 C 227.476562 188.273438 227.425781 188.273438 226.949219 187.824219 C 226.074219 187.023438 225.925781 186.523438 226.375 185.851562 C 226.699219 185.351562 226.726562 185.148438 226.476562 184.851562 C 226.050781 184.324219 225.875 184.398438 225.148438 185.449219 Z M 225.148438 185.449219 "/>
<path style=" stroke:none;fill-rule:nonzero;fill:rgb(0%,0%,0%);fill-opacity:1;" d="M 99.699219 195.324219 C 97.800781 196.449219 96.25 197.425781 96.25 197.5 C 96.25 197.574219 96.375 197.800781 96.5 198 C 96.699219 198.324219 96.976562 198.25 98.273438 197.550781 C 99.101562 197.074219 99.851562 196.75 99.898438 196.824219 C 99.976562 196.875 99.449219 197.449219 98.773438 198.050781 C 97.625 199.074219 97.574219 199.199219 97.925781 199.574219 C 98.300781 199.949219 98.449219 199.851562 99.875 198.601562 C 101.050781 197.601562 101.625 197.25 102.199219 197.25 C 103 197.25 104.75 196 104.75 195.425781 C 104.75 195.074219 103.5 193.25 103.273438 193.273438 C 103.199219 193.300781 101.574219 194.226562 99.699219 195.324219 Z M 103.25 195.25 C 103.25 195.824219 101.925781 196.550781 101.324219 196.324219 C 100.800781 196.125 100.949219 195.898438 101.949219 195.351562 C 103.148438 194.648438 103.25 194.648438 103.25 195.25 Z M 103.25 195.25 "/>
<path style=" stroke:none;fill-rule:nonzero;fill:rgb(0%,0%,0%);fill-opacity:1;" d="M 218.25 193.875 C 217.949219 194.226562 218.050781 194.601562 218.976562 196.425781 C 219.550781 197.601562 219.976562 198.601562 219.925781 198.648438 C 219.875 198.726562 219.175781 197.976562 218.375 197 C 217.074219 195.425781 216.875 195.273438 216.550781 195.601562 C 216.101562 196.050781 215.925781 195.75 219.101562 199.425781 C 220.324219 200.851562 221.398438 202 221.5 202 C 221.601562 202 221.824219 201.851562 221.976562 201.648438 C 222.226562 201.375 221.925781 200.523438 220.601562 197.574219 C 219.699219 195.550781 218.851562 193.773438 218.75 193.675781 C 218.648438 193.574219 218.425781 193.648438 218.25 193.875 Z M 218.25 193.875 "/>
<path style=" stroke:none;fill-rule:nonzero;fill:rgb(0%,0%,0%);fill-opacity:1;" d="M 208.949219 202.199219 C 208.425781 202.574219 208 202.976562 208 203.125 C 208 203.550781 211.101562 210.5 211.324219 210.5 C 211.425781 210.5 211.925781 210.175781 212.476562 209.800781 C 213.273438 209.226562 213.398438 209.023438 213.226562 208.550781 C 213.023438 208 212.976562 208 212.449219 208.351562 C 211.675781 208.898438 211.601562 208.875 211.125 207.699219 C 210.75 206.773438 210.75 206.648438 211.101562 206.449219 C 211.550781 206.199219 211.601562 205.800781 211.273438 205.273438 C 211.074219 204.976562 210.976562 204.949219 210.648438 205.25 C 210.425781 205.425781 210.199219 205.523438 210.175781 205.476562 C 210.148438 205.425781 209.898438 204.949219 209.675781 204.398438 C 209.25 203.476562 209.25 203.425781 209.675781 203.101562 C 209.925781 202.925781 210.199219 202.75 210.324219 202.75 C 210.601562 202.75 210.550781 202.398438 210.199219 201.925781 C 209.898438 201.574219 209.800781 201.601562 208.949219 202.199219 Z M 208.949219 202.199219 "/>
<path style=" stroke:none;fill-rule:nonzero;fill:rgb(0%,0%,0%);fill-opacity:1;" d="M 109.5 204.148438 C 105.75 207.226562 105.898438 207.074219 106.476562 207.425781 C 106.875 207.675781 107.351562 207.375 110.023438 205.199219 C 111.726562 203.824219 113.175781 202.648438 113.226562 202.601562 C 113.351562 202.476562 112.75 201.75 112.523438 201.773438 C 112.449219 201.773438 111.074219 202.851562 109.5 204.148438 Z M 109.5 204.148438 "/>
<path style=" stroke:none;fill-rule:nonzero;fill:rgb(0%,0%,0%);fill-opacity:1;" d="M 120 208.324219 C 119.800781 208.5 118.75 209.550781 117.699219 210.699219 C 116.351562 212.125 115.75 212.925781 115.75 213.375 C 115.75 214.175781 116.773438 214.875 117.601562 214.648438 C 118.476562 214.425781 119.625 213.398438 119.398438 213.050781 C 119.125 212.601562 118.625 212.699219 118.125 213.25 C 117.625 213.800781 117 213.925781 117 213.425781 C 117 212.976562 120.726562 209 121.148438 209 C 121.625 209 121.601562 209.476562 121.101562 210.023438 C 120.675781 210.5 120.800781 211 121.375 211 C 121.824219 211 122.75 209.800781 122.75 209.226562 C 122.75 208.175781 120.925781 207.574219 120 208.324219 Z M 120 208.324219 "/>
<path style=" stroke:none;fill-rule:nonzero;fill:rgb(0%,0%,0%);fill-opacity:1;" d="M 190.699219 212.699219 C 190.375 212.75 190.300781 212.976562 190.375 213.449219 C 191 216.898438 191.050781 218.300781 190.523438 216.976562 C 189.398438 214.050781 188.601562 212.925781 188.175781 213.675781 C 188.101562 213.824219 188.898438 220 189.25 221.925781 C 189.25 221.925781 189.476562 221.898438 189.75 221.824219 C 190.101562 221.726562 190.199219 221.550781 190.101562 221.023438 C 189.800781 219.199219 189.523438 217.148438 189.601562 217.074219 C 189.625 217.023438 190.074219 217.898438 190.574219 219 C 191.375 220.824219 191.976562 221.425781 192.324219 220.800781 C 192.449219 220.625 191.351562 212.75 191.199219 212.648438 C 191.148438 212.625 190.925781 212.625 190.699219 212.699219 Z M 190.699219 212.699219 "/>
<path style=" stroke:none;fill-rule:nonzero;fill:rgb(0%,0%,0%);fill-opacity:1;" d="M 131.226562 213.148438 C 131.074219 213.324219 130 214.875 128.851562 216.550781 L 126.75 219.625 L 127.949219 220.175781 C 129.023438 220.648438 129.148438 220.675781 129.449219 220.300781 C 129.601562 220.074219 129.75 219.824219 129.75 219.699219 C 129.75 219.601562 129.601562 219.5 129.449219 219.5 C 128.574219 219.476562 128.449219 219.074219 129.050781 218.148438 C 129.523438 217.375 129.726562 217.25 130.300781 217.351562 C 130.824219 217.449219 131.050781 217.351562 131.25 217 C 131.476562 216.601562 131.425781 216.449219 131.125 216.351562 C 130.601562 216.148438 130.648438 215.75 131.324219 214.925781 C 131.800781 214.300781 131.976562 214.25 132.550781 214.476562 C 133.074219 214.675781 133.273438 214.625 133.601562 214.273438 C 134 213.851562 133.949219 213.800781 132.773438 213.300781 C 131.726562 212.875 131.476562 212.851562 131.226562 213.148438 Z M 131.226562 213.148438 "/>
<path style=" stroke:none;fill-rule:nonzero;fill:rgb(0%,0%,0%);fill-opacity:1;" d="M 177.699219 216.675781 C 177.449219 216.726562 177.25 216.898438 177.25 217.023438 C 177.25 217.351562 176.300781 223.648438 176.101562 224.550781 C 175.976562 225.125 176.050781 225.25 176.476562 225.25 C 176.824219 225.25 177.023438 225.050781 177.148438 224.550781 C 177.398438 223.351562 177.476562 223.25 177.976562 223.25 C 178.300781 223.25 178.5 223.476562 178.625 224 C 178.75 224.523438 178.949219 224.75 179.273438 224.75 C 179.851562 224.75 179.851562 224.875 179.25 220.625 C 178.976562 218.699219 178.75 216.976562 178.75 216.800781 C 178.75 216.5 178.5 216.476562 177.699219 216.675781 Z M 178.25 220.925781 C 178.25 221.75 178.148438 222 177.851562 222 C 177.523438 222 177.476562 221.824219 177.601562 221.226562 C 177.675781 220.800781 177.75 220.148438 177.75 219.773438 C 177.75 219.273438 177.800781 219.199219 178 219.5 C 178.125 219.699219 178.25 220.351562 178.25 220.925781 Z M 178.25 220.925781 "/>
<path style=" stroke:none;fill-rule:nonzero;fill:rgb(0%,0%,0%);fill-opacity:1;" d="M 151.648438 218.375 C 151.398438 219.050781 151.476562 219.25 152 219.25 C 152.273438 219.25 152.5 219.300781 152.5 219.375 C 152.5 219.425781 152 220.898438 151.375 222.648438 C 150.523438 225.074219 150.324219 225.898438 150.574219 226.050781 C 150.726562 226.148438 150.976562 226.199219 151.101562 226.175781 C 151.226562 226.125 151.851562 224.625 152.476562 222.800781 C 153.5 219.851562 153.699219 219.523438 154.25 219.449219 C 154.675781 219.398438 154.898438 219.199219 154.949219 218.800781 C 155.023438 218.351562 154.925781 218.25 154.324219 218.25 C 153.949219 218.25 153.226562 218.175781 152.726562 218.101562 C 152.023438 217.976562 151.800781 218.050781 151.648438 218.375 Z M 151.648438 218.375 "/>
<path style=" stroke:none;fill-rule:nonzero;fill:rgb(0%,0%,0%);fill-opacity:1;" d="M 165.898438 218.800781 C 165.824219 219.125 165.675781 219.875 165.574219 220.5 C 165.398438 221.375 165.25 221.648438 164.824219 221.699219 C 164.324219 221.773438 164.300781 221.75 164.625 220.148438 C 164.925781 218.5 164.925781 218.5 164.351562 218.5 C 163.898438 218.5 163.75 218.675781 163.625 219.300781 C 163.550781 219.75 163.226562 221.625 162.898438 223.425781 L 162.324219 226.75 L 162.898438 226.75 C 163.398438 226.75 163.5 226.574219 163.773438 224.875 C 164.023438 223.273438 164.148438 223 164.574219 223 C 165.023438 223 165.050781 223.101562 164.875 224.425781 C 164.773438 225.199219 164.648438 225.976562 164.574219 226.175781 C 164.5 226.398438 164.648438 226.5 165.050781 226.5 C 165.648438 226.5 165.675781 226.375 166.324219 222.550781 C 166.699219 220.398438 167 218.550781 167 218.425781 C 167 218.324219 166.773438 218.25 166.5 218.25 C 166.199219 218.25 165.976562 218.449219 165.898438 218.800781 Z M 165.898438 218.800781 "/>
</g>
</svg>
